<svg id="Component_117_13" data-name="Component 117 – 13" xmlns="http://www.w3.org/2000/svg" xmlns:xlink="http://www.w3.org/1999/xlink" width="62" height="62" viewBox="0 0 62 62">
  <defs>
    <clipPath id="clip-path">
      <rect id="Rectangle_237" data-name="Rectangle 237" width="62" height="62" transform="translate(426.851 315.673)" fill="none"/>
    </clipPath>
  </defs>
  <g id="Group_861" data-name="Group 861" transform="translate(-426.851 -315.673)" clip-path="url(#clip-path)">
    <g id="Group_860" data-name="Group 860">
      <path id="Path_282" data-name="Path 282" d="M474.1,332.836h2.88a2.783,2.783,0,0,1,2.782,2.782v25.947a2.783,2.783,0,0,1-2.782,2.782H438.72a2.783,2.783,0,0,1-2.782-2.782V335.618a2.783,2.783,0,0,1,2.782-2.782h2.859" fill="none" stroke="#001741" stroke-linecap="round" stroke-miterlimit="10" stroke-width="1.5"/>
      <line id="Line_1065" data-name="Line 1065" x2="27.159" transform="translate(444.257 332.836)" fill="none" stroke="#001741" stroke-linecap="round" stroke-miterlimit="10" stroke-width="1.5"/>
      <line id="Line_1066" data-name="Line 1066" x2="43.503" transform="translate(436.1 338.69)" fill="none" stroke="#001741" stroke-linecap="round" stroke-miterlimit="10" stroke-width="1.5"/>
      <path id="Path_283" data-name="Path 283" d="M456.125,344.541h3.066a.386.386,0,0,0,.386-.386v-1.313" fill="none" stroke="#001741" stroke-linecap="round" stroke-miterlimit="10" stroke-width="1.5"/>
      <path id="Path_284" data-name="Path 284" d="M463.605,344.541h3.066a.386.386,0,0,0,.386-.386v-1.313" fill="none" stroke="#001741" stroke-linecap="round" stroke-miterlimit="10" stroke-width="1.5"/>
      <path id="Path_285" data-name="Path 285" d="M471.084,344.541h3.066a.386.386,0,0,0,.386-.386v-1.313" fill="none" stroke="#001741" stroke-linecap="round" stroke-miterlimit="10" stroke-width="1.5"/>
      <path id="Path_286" data-name="Path 286" d="M441.167,349.485h3.066a.386.386,0,0,0,.386-.386v-1.313" fill="none" stroke="#001741" stroke-linecap="round" stroke-miterlimit="10" stroke-width="1.5"/>
      <path id="Path_287" data-name="Path 287" d="M448.646,349.485h3.066a.386.386,0,0,0,.386-.386v-1.313" fill="none" stroke="#001741" stroke-linecap="round" stroke-miterlimit="10" stroke-width="1.5"/>
      <path id="Path_288" data-name="Path 288" d="M456.125,349.485h3.066a.386.386,0,0,0,.386-.386v-1.313" fill="none" stroke="#001741" stroke-linecap="round" stroke-miterlimit="10" stroke-width="1.5"/>
      <path id="Path_289" data-name="Path 289" d="M463.605,349.485h3.066a.386.386,0,0,0,.386-.386v-1.313" fill="none" stroke="#001741" stroke-linecap="round" stroke-miterlimit="10" stroke-width="1.5"/>
      <path id="Path_290" data-name="Path 290" d="M471.084,349.485h3.066a.386.386,0,0,0,.386-.386v-1.313" fill="none" stroke="#001741" stroke-linecap="round" stroke-miterlimit="10" stroke-width="1.5"/>
      <path id="Path_291" data-name="Path 291" d="M441.167,354.428h3.066a.386.386,0,0,0,.386-.386v-1.313" fill="none" stroke="#001741" stroke-linecap="round" stroke-miterlimit="10" stroke-width="1.5"/>
      <path id="Path_292" data-name="Path 292" d="M448.646,354.428h3.066a.386.386,0,0,0,.386-.386v-1.313" fill="none" stroke="#001741" stroke-linecap="round" stroke-miterlimit="10" stroke-width="1.5"/>
      <path id="Path_293" data-name="Path 293" d="M456.125,354.428h3.066a.386.386,0,0,0,.386-.386v-1.313" fill="none" stroke="#001741" stroke-linecap="round" stroke-miterlimit="10" stroke-width="1.5"/>
      <path id="Path_294" data-name="Path 294" d="M463.605,354.428h3.066a.386.386,0,0,0,.386-.386v-1.313" fill="none" stroke="#001741" stroke-linecap="round" stroke-miterlimit="10" stroke-width="1.5"/>
      <path id="Path_295" data-name="Path 295" d="M471.084,354.428h3.066a.386.386,0,0,0,.386-.386v-1.313" fill="none" stroke="#001741" stroke-linecap="round" stroke-miterlimit="10" stroke-width="1.5"/>
      <path id="Path_296" data-name="Path 296" d="M441.167,359.372h3.066a.386.386,0,0,0,.386-.386v-1.313" fill="none" stroke="#001741" stroke-linecap="round" stroke-miterlimit="10" stroke-width="1.5"/>
      <path id="Path_297" data-name="Path 297" d="M448.646,359.372h3.066a.386.386,0,0,0,.386-.386v-1.313" fill="none" stroke="#001741" stroke-linecap="round" stroke-miterlimit="10" stroke-width="1.5"/>
      <path id="Path_298" data-name="Path 298" d="M456.125,359.372h3.066a.386.386,0,0,0,.386-.386v-1.313" fill="none" stroke="#001741" stroke-linecap="round" stroke-miterlimit="10" stroke-width="1.5"/>
      <path id="Path_299" data-name="Path 299" d="M463.605,359.372h3.066a.386.386,0,0,0,.386-.386v-1.313" fill="none" stroke="#001741" stroke-linecap="round" stroke-miterlimit="10" stroke-width="1.5"/>
      <path id="Path_300" data-name="Path 300" d="M444.72,330.483a1.483,1.483,0,1,0-2.966,0v3.965" fill="none" stroke="#001741" stroke-linecap="round" stroke-miterlimit="10" stroke-width="1.5"/>
      <path id="Path_301" data-name="Path 301" d="M474.382,330.483a1.483,1.483,0,1,0-2.966,0v3.965" fill="none" stroke="#001741" stroke-linecap="round" stroke-miterlimit="10" stroke-width="1.5"/>
    </g>
  </g>
</svg>
