<svg data-name="Component 120 – 5" xmlns="http://www.w3.org/2000/svg" width="62" height="62" viewBox="0 0 62 62"><defs><clipPath id="a"><path data-name="Rectangle 242" transform="translate(196.554 348.525)" fill="none" d="M0 0h62v62H0z"/></clipPath></defs><g data-name="Group 883" transform="translate(-196.554 -348.525)" clip-path="url(#a)"><g data-name="Group 882" fill="none" stroke="#001741" stroke-linecap="round" stroke-linejoin="round" stroke-width="1.5"><path data-name="Path 303" d="M246.44 364.445h-31.851a3.019 3.019 0 01-3.046-2.637 2.932 2.932 0 012.916-3.222h31.981a1.42 1.42 0 001.42-1.42v-2.249h-33.4a6.6 6.6 0 00-6.6 6.6h0a6.6 6.6 0 006.6 6.6h33.4v-2.247a1.421 1.421 0 00-1.42-1.425z"/><path data-name="Path 304" d="M207.86 361.515v34.4h0a6.6 6.6 0 006.6 6.6h33.4v-34.4"/><path data-name="Path 305" d="M246.075 358.586v5.859"/><g data-name="Group 881"><path data-name="Line 1068" d="M218.709 381.115h22.468"/><path data-name="Line 1069" d="M218.709 384.536h17.333"/><path data-name="Line 1070" d="M218.709 388.255h22.468"/><path data-name="Line 1071" d="M218.709 391.974h22.468"/><path data-name="Line 1072" d="M218.709 377.694h10.568"/></g></g></g></svg>