<svg id="Component_122_3" data-name="Component 122 – 3" xmlns="http://www.w3.org/2000/svg" xmlns:xlink="http://www.w3.org/1999/xlink" width="62" height="62" viewBox="0 0 62 62">
  <defs>
    <clipPath id="clip-path">
      <rect id="Rectangle_244" data-name="Rectangle 244" width="62" height="62" transform="translate(-7064 1255)" fill="#fff"/>
    </clipPath>
  </defs>
  <g id="Group_886" data-name="Group 886" transform="translate(7064 -1255)" clip-path="url(#clip-path)">
    <g id="Group_885" data-name="Group 885" transform="translate(-7053.5 1260.113)">
      <path id="Path_306" data-name="Path 306" d="M469.175,269.17a1.5,1.5,0,0,1,.251.051,14.784,14.784,0,0,0,1.659.151,7.774,7.774,0,0,0,5.882-2.363,8.571,8.571,0,0,0,2.263-6.185,9.161,9.161,0,0,0-2.766-6.863,9.616,9.616,0,0,0-6.988-2.689,10.282,10.282,0,0,0-7.894,3.242,11.942,11.942,0,0,0-3.016,8.472,17.154,17.154,0,0,0,5.63,12.7,23.4,23.4,0,0,0,14.33,6.36v-6.486a13.23,13.23,0,0,1-6.16-1.935A8.337,8.337,0,0,1,469.175,269.17Zm-24.335,0a1.377,1.377,0,0,1,.3.051,13.556,13.556,0,0,0,1.658.151,7.921,7.921,0,0,0,5.959-2.363,8.515,8.515,0,0,0,2.287-6.185,9.16,9.16,0,0,0-2.765-6.863,9.68,9.68,0,0,0-7.039-2.689,10.443,10.443,0,0,0-7.944,3.242,11.828,11.828,0,0,0-3.067,8.472,17.116,17.116,0,0,0,5.656,12.7,23.514,23.514,0,0,0,14.355,6.36v-6.486a13.225,13.225,0,0,1-6.159-1.935A8.6,8.6,0,0,1,444.84,269.17Z" transform="translate(-435.731 -244.271)" fill="none" stroke="#001741" stroke-width="1.5"/>
    </g>
  </g>
</svg>
