<svg id="Component_117_12" data-name="Component 117 – 12" xmlns="http://www.w3.org/2000/svg" xmlns:xlink="http://www.w3.org/1999/xlink" width="62" height="62" viewBox="0 0 62 62">
  <defs>
    <clipPath id="clip-path">
      <rect id="Rectangle_236" data-name="Rectangle 236" width="62" height="62" transform="translate(344.5 315.5)" fill="none"/>
    </clipPath>
  </defs>
  <g id="Group_858" data-name="Group 858" transform="translate(-344.5 -315.5)" clip-path="url(#clip-path)">
    <g id="Group_857" data-name="Group 857">
      <path id="Path_279" data-name="Path 279" d="M371.366,353.4,355,362.155l4.658,2.488c1.652.882,2.188.756,3.086.276.983-.526.681-2.041,3.416-2.469a8.692,8.692,0,0,1,5.023,1.076c1.531.79,2.456,1.881,2.017,2.684-.8,1.462-3.634,1.3-4.618,1.827-.9.481-1.133.767.519,1.649l6.392,3.415,6.131-3.279c1.649-.882,2.186-.756,3.084-.276.984.526.685,2.041,3.421,2.469a8.7,8.7,0,0,0,5.021-1.077c1.529-.791,2.452-1.882,2.012-2.685-.8-1.462-3.637-1.3-4.621-1.827-.9-.479-1.135-.766.514-1.648L396,362.133l-8-4.274" fill="none" stroke="#001741" stroke-linecap="round" stroke-linejoin="round" stroke-width="1.5"/>
      <path id="Path_280" data-name="Path 280" d="M384.447,348.781a5.075,5.075,0,0,0,4.621-4.621v-5.777c0-3.816-3.465-5.776-9.242-5.776s-9.242,1.96-9.242,5.776v5.777a5.076,5.076,0,0,0,4.621,4.621" fill="none" stroke="#001741" stroke-linecap="round" stroke-linejoin="round" stroke-width="1.5"/>
      <path id="Path_281" data-name="Path 281" d="M379.826,329.141a3.437,3.437,0,0,0,3.466-3.7V323.6a3.473,3.473,0,1,0-6.932,0v1.848A3.438,3.438,0,0,0,379.826,329.141Z" fill="none" stroke="#001741" stroke-linecap="round" stroke-linejoin="round" stroke-width="1.5"/>
      <line id="Line_1062" data-name="Line 1062" y1="21.95" transform="translate(384.447 339.539)" fill="none" stroke="#001741" stroke-linecap="round" stroke-linejoin="round" stroke-width="1.5"/>
      <line id="Line_1063" data-name="Line 1063" y2="21.95" transform="translate(375.205 339.539)" fill="none" stroke="#001741" stroke-linecap="round" stroke-linejoin="round" stroke-width="1.5"/>
      <line id="Line_1064" data-name="Line 1064" y2="13.863" transform="translate(379.826 347.626)" fill="none" stroke="#001741" stroke-linecap="round" stroke-linejoin="round" stroke-width="1.5"/>
    </g>
  </g>
</svg>
