<svg id="Component_114_4" data-name="Component 114 – 4" xmlns="http://www.w3.org/2000/svg" xmlns:xlink="http://www.w3.org/1999/xlink" width="62" height="62" viewBox="0 0 62 62">
  <defs>
    <clipPath id="clip-path">
      <rect id="Rectangle_228" data-name="Rectangle 228" width="62" height="62" transform="translate(-7064 1255)" fill="#fff"/>
    </clipPath>
  </defs>
  <g id="Mask_Group_43" data-name="Mask Group 43" transform="translate(7064 -1255)" clip-path="url(#clip-path)">
    <g id="Group_851" data-name="Group 851" transform="translate(-7187.328 1351)">
      <g id="Group_850" data-name="Group 850" transform="translate(129.328 -88)">
        <line id="Line_1031" data-name="Line 1031" x2="23.551" transform="translate(6.676 18.983)" fill="none" stroke="#001741" stroke-linecap="round" stroke-linejoin="round" stroke-width="1.5"/>
        <path id="Path_234" data-name="Path 234" d="M165.6-47.832v3.589a3,3,0,0,1-3,3H132.324a3,3,0,0,1-3-3V-79.5a.415.415,0,0,1,.122-.294l8.083-8.083a.411.411,0,0,1,.293-.122h24.78a3,3,0,0,1,3,3v3.246" transform="translate(-129.328 88)" fill="none" stroke="#001741" stroke-linecap="round" stroke-linejoin="round" stroke-width="1.5"/>
        <path id="Path_235" data-name="Path 235" d="M129.328-79.673h6.5a1.845,1.845,0,0,0,1.845-1.844V-88" transform="translate(-129.328 88)" fill="none" stroke="#001741" stroke-linecap="round" stroke-linejoin="round" stroke-width="1.5"/>
        <line id="Line_1032" data-name="Line 1032" x2="23.551" transform="translate(6.361 13.987)" fill="none" stroke="#001741" stroke-linecap="round" stroke-linejoin="round" stroke-width="1.5"/>
        <line id="Line_1033" data-name="Line 1033" x2="23.551" transform="translate(6.361 23.35)" fill="none" stroke="#001741" stroke-linecap="round" stroke-linejoin="round" stroke-width="1.5"/>
        <line id="Line_1034" data-name="Line 1034" x2="18.153" transform="translate(6.361 32.774)" fill="none" stroke="#001741" stroke-linecap="round" stroke-linejoin="round" stroke-width="1.5"/>
        <line id="Line_1035" data-name="Line 1035" x2="11.514" transform="translate(6.361 28.031)" fill="none" stroke="#001741" stroke-linecap="round" stroke-linejoin="round" stroke-width="1.5"/>
        <path id="Path_236" data-name="Path 236" d="M172.935-56.992l7.08-24.4a1.3,1.3,0,0,0-.887-1.613L173.287-84.7a1.3,1.3,0,0,0-1.613.887l-7.047,24.287a7.229,7.229,0,0,0,.272,4.795l1.768,4.239,3.649-2.719A7.226,7.226,0,0,0,172.935-56.992Z" transform="translate(-131.328 87.815)" fill="none" stroke="#001741" stroke-linecap="round" stroke-linejoin="round" stroke-width="1.5"/>
        <line id="Line_1036" data-name="Line 1036" x2="8.342" y2="2.42" transform="translate(33.359 28.08)" fill="none" stroke="#001741" stroke-linecap="round" stroke-linejoin="round" stroke-width="1.5"/>
        <path id="Path_237" data-name="Path 237" d="M171.179-80.521l9.656,2.8a1.587,1.587,0,0,1,1.081,1.964l-2.5,8.613" transform="translate(-131.719 87.573)" fill="none" stroke="#001741" stroke-linecap="round" stroke-linejoin="round" stroke-width="1.5"/>
        <path id="Path_238" data-name="Path 238" d="M175.39-84.5l.593-2.043a.639.639,0,0,1,.792-.436l1.626.472a.639.639,0,0,1,.437.792l-.593,2.043" transform="translate(-131.959 87.943)" fill="none" stroke="#001741" stroke-linecap="round" stroke-linejoin="round" stroke-width="1.5"/>
        <line id="Line_1037" data-name="Line 1037" x1="2.052" y2="7.07" transform="translate(39.301 12.014)" fill="none" stroke="#001741" stroke-linecap="round" stroke-linejoin="round" stroke-width="1.5"/>
      </g>
    </g>
  </g>
</svg>
