<svg id="Group_229" data-name="Group 229" xmlns="http://www.w3.org/2000/svg" width="465.5" height="318.296" viewBox="0 0 465.5 318.296">
  <path id="Path_122" data-name="Path 122" d="M795.709,436.422a15.558,15.558,0,0,1,2.6.523,152.91,152.91,0,0,0,17.166,1.56q37.453,0,60.85-24.446t23.41-63.979q0-43.158-28.611-70.99-28.594-27.816-72.29-27.819-50.442,0-81.659,33.539t-31.2,87.638q0,74.891,58.244,131.327,58.267,56.433,148.239,65.793V502.474q-40.578-4.158-63.721-20.021T795.709,436.422Zm-251.737,0a14.233,14.233,0,0,1,3.13.523,140.219,140.219,0,0,0,17.156,1.56q37.974,0,61.638-24.446t23.658-63.979q0-43.158-28.6-70.99-28.593-27.816-72.814-27.819-50.441,0-82.181,33.539-31.718,33.552-31.726,87.638,0,74.891,58.513,131.327t148.493,65.793V502.474q-40.578-4.158-63.71-20.021T543.973,436.422Z" transform="translate(-434.231 -251.271)" fill="#eee"/>
</svg>
