<svg xmlns="http://www.w3.org/2000/svg" xmlns:xlink="http://www.w3.org/1999/xlink" width="62" height="62" viewBox="0 0 62 62">
  <defs>
    <clipPath id="clip-path">
      <rect id="Rectangle_167" data-name="Rectangle 167" width="62" height="62" transform="translate(3367 1416)" fill="#fff"/>
    </clipPath>
  </defs>
  <g id="Mask_Group_16" data-name="Mask Group 16" transform="translate(-3367 -1416)" clip-path="url(#clip-path)">
    <g id="Group_193" data-name="Group 193" transform="translate(3370.5 1432)">
      <path id="Path_39" data-name="Path 39" d="M886.241,1573.357a8.072,8.072,0,0,1,0-16.144,7.982,7.982,0,0,1,3.616.892,14.647,14.647,0,0,1,29.011-2.271,9.443,9.443,0,1,1,4.872,17.524Z" transform="translate(-878.169 -1544)" fill="none" stroke="#bbb" stroke-linecap="round" stroke-linejoin="round" stroke-width="1.5"/>
      <path id="Path_40" data-name="Path 40" d="M910.85,1553.618a8.753,8.753,0,0,1,8.574,7.048" transform="translate(-884.542 -1547.689)" fill="none" stroke="#bbb" stroke-linecap="round" stroke-linejoin="round" stroke-width="1.5"/>
      <path id="Path_41" data-name="Path 41" d="M887.787,1570.557a3.532,3.532,0,0,1,3.527,3.529" transform="translate(-842.215 -1554.186)" fill="none" stroke="#bbb" stroke-linecap="round" stroke-linejoin="round" stroke-width="1.5"/>
    </g>
  </g>
</svg>
