<svg xmlns="http://www.w3.org/2000/svg" width="49.294" height="62.254" viewBox="0 0 49.294 62.254"><g transform="translate(-3644.025 -618.282)"><path d="M1379.4,1342.818s11.725-7.728,15.488-10.509c2.615-1.933,4.068-5.55,4.068-9.322v-20.966c-9.025.628-19.552-8.793-19.557-8.8h0c-.005,0-10.532,9.425-19.557,8.8v20.966c0,3.773,1.453,7.39,4.068,9.322,3.763,2.781,15.489,10.509,15.489,10.509h0" transform="translate(2289.269 -668.23)" fill="none" stroke="currentColor" stroke-linecap="round" stroke-linejoin="round" stroke-width="1.5"/><path d="M1378.484,1346.754l-2.388-1.574c-.483-.318-11.868-7.825-15.68-10.642-3.65-2.7-5.829-7.488-5.829-12.813v-25.618l4.641.324q.286.02.576.02c5.8,0,13.3-5.518,15.75-7.691l2.93-2.758,2.929,2.759c2.454,2.172,9.947,7.69,15.749,7.69h0c.193,0,.386-.007.578-.02l4.641-.324v25.618c0,5.325-2.179,10.115-5.829,12.813-3.813,2.817-15.2,10.324-15.681,10.642Z" transform="translate(2290.188 -666.968)" fill="none" stroke="currentColor" stroke-linecap="round" stroke-linejoin="round" stroke-width="1.5"/><path d="M1375.285,1318.791l6.058,6.058,11.921-11.921" transform="translate(2286.57 -671.674)" fill="none" stroke="currentColor" stroke-linecap="round" stroke-linejoin="round" stroke-width="1.5"/><path d="M1387.182,1312.413a10.442,10.442,0,1,0,3.646,6.429" transform="translate(2287.491 -671.161)" fill="none" stroke="currentColor" stroke-linecap="round" stroke-linejoin="round" stroke-width="1.5"/></g></svg>