<svg xmlns="http://www.w3.org/2000/svg" width="68.311" height="58.08" viewBox="0 0 68.311 58.08"><g transform="translate(-3633.698 -847.863)"><path d="M1253.963,1591.372h-59.277a2.843,2.843,0,0,1-2.823-2.511l-.921-7.821a2.843,2.843,0,0,1,2.824-3.175h61.118a2.842,2.842,0,0,1,2.823,3.175l-.92,7.821A2.842,2.842,0,0,1,1253.963,1591.372Z" transform="translate(2443.53 -686.18)" fill="none" stroke="currentColor" stroke-linecap="round" stroke-linejoin="round" stroke-width="1.5"/><line x2="1.542" transform="translate(3693.931 900.367)" stroke-width="1.5" stroke="currentColor" stroke-linecap="round" stroke-linejoin="round" fill="none"/><path d="M1253.963,1577.617h-59.277a2.843,2.843,0,0,1-2.823-2.511l-.921-7.821a2.844,2.844,0,0,1,2.824-3.176h61.118a2.843,2.843,0,0,1,2.823,3.176l-.92,7.821A2.843,2.843,0,0,1,1253.963,1577.617Z" transform="translate(2443.53 -685.931)" fill="none" stroke="currentColor" stroke-linecap="round" stroke-linejoin="round" stroke-width="1.5"/><line x2="1.542" transform="translate(3693.931 886.86)" stroke-width="1.5" stroke="currentColor" stroke-linecap="round" stroke-linejoin="round" fill="none"/><path d="M1253.963,1563.861h-59.277a2.842,2.842,0,0,1-2.823-2.51l-.921-7.821a2.843,2.843,0,0,1,2.824-3.176h61.118a2.842,2.842,0,0,1,2.823,3.176l-.92,7.821A2.841,2.841,0,0,1,1253.963,1563.861Z" transform="translate(2443.53 -685.682)" fill="none" stroke="currentColor" stroke-linecap="round" stroke-linejoin="round" stroke-width="1.5"/><path d="M1257.19,1551.228l-9.123-15.526a3.9,3.9,0,0,0-3.222-1.7h-41.021a3.9,3.9,0,0,0-3.223,1.7l-9.122,15.526" transform="translate(2443.52 -685.387)" fill="none" stroke="currentColor" stroke-linecap="round" stroke-linejoin="round" stroke-width="1.5"/><line x2="1.542" transform="translate(3693.931 873.354)" stroke-width="1.5" stroke="currentColor" stroke-linecap="round" stroke-linejoin="round" fill="none"/><line x2="1.542" transform="translate(3640.101 900.367)" stroke-width="1.5" stroke="currentColor" stroke-linecap="round" stroke-linejoin="round" fill="none"/><line x2="1.542" transform="translate(3645.498 900.367)" stroke-width="1.5" stroke="currentColor" stroke-linecap="round" stroke-linejoin="round" fill="none"/><line x2="1.542" transform="translate(3640.101 886.86)" stroke-width="1.5" stroke="currentColor" stroke-linecap="round" stroke-linejoin="round" fill="none"/><line x2="1.542" transform="translate(3645.498 886.86)" stroke-width="1.5" stroke="currentColor" stroke-linecap="round" stroke-linejoin="round" fill="none"/><line x2="1.542" transform="translate(3640.101 873.354)" stroke-width="1.5" stroke="currentColor" stroke-linecap="round" stroke-linejoin="round" fill="none"/><line x2="1.542" transform="translate(3645.498 873.354)" stroke-width="1.5" stroke="currentColor" stroke-linecap="round" stroke-linejoin="round" fill="none"/></g></svg>