<svg xmlns="http://www.w3.org/2000/svg" xmlns:xlink="http://www.w3.org/1999/xlink" width="62" height="62" viewBox="0 0 62 62">
  <defs>
    <clipPath id="clip-path">
      <rect id="Rectangle_162" data-name="Rectangle 162" width="62" height="62" transform="translate(3033 1235)" fill="#fff"/>
    </clipPath>
  </defs>
  <g id="Mask_Group_13" data-name="Mask Group 13" transform="translate(-3033 -1235)" clip-path="url(#clip-path)">
    <g id="Group_573" data-name="Group 573" transform="translate(2960.781 1335.886)">
      <g id="Group_239" data-name="Group 239">
        <path id="Path_46" data-name="Path 46" d="M106.179-85.908h-5.166a1.321,1.321,0,0,0-1.321,1.32h0v2.094a13.325,13.325,0,0,0-2.834,1.162L95.387-82.8a1.321,1.321,0,0,0-1.868,0h0L90.154-79.44a1.321,1.321,0,0,0,0,1.868h0l1.46,1.46a13.344,13.344,0,0,0-1.183,2.846H88.37a1.32,1.32,0,0,0-1.32,1.321h0v4.758a1.321,1.321,0,0,0,1.32,1.321h2.061a13.344,13.344,0,0,0,1.183,2.846l-1.46,1.459a1.321,1.321,0,0,0,0,1.868h0l3.365,3.365a1.319,1.319,0,0,0,1.867,0h0L96.858-57.8a13.381,13.381,0,0,0,2.834,1.163v2.093a1.322,1.322,0,0,0,1.321,1.321h4.758a1.321,1.321,0,0,0,1.32-1.321h0v-2.119a13.315,13.315,0,0,0,2.8-1.171l1.509,1.509a1.32,1.32,0,0,0,1.867,0h0l3.364-3.364a1.321,1.321,0,0,0,0-1.868l-1.518-1.518a13.326,13.326,0,0,0,1.15-2.788h2.152a1.32,1.32,0,0,0,1.321-1.321h0V-72.35" fill="none" stroke="#bbb" stroke-linecap="round" stroke-linejoin="round" stroke-width="1.5"/>
        <path id="Path_47" data-name="Path 47" d="M113.11-69.566a9.719,9.719,0,0,1-9.719,9.719,9.718,9.718,0,0,1-9.718-9.719,9.718,9.718,0,0,1,9.718-9.718" fill="none" stroke="#bbb" stroke-linecap="round" stroke-linejoin="round" stroke-width="1.5" stroke-dasharray="0.502 6.023"/>
        <path id="Path_48" data-name="Path 48" d="M103.391-77.233a7.668,7.668,0,0,0-7.667,7.667,7.667,7.667,0,0,0,7.667,7.667,7.666,7.666,0,0,0,7.667-7.667" fill="none" stroke="#bbb" stroke-linecap="round" stroke-linejoin="round" stroke-width="1.5"/>
        <path id="Path_49" data-name="Path 49" d="M120-77.831v-2.118a.587.587,0,0,0-.588-.587h-.958a5.919,5.919,0,0,0-.511-1.241l.675-.676a.588.588,0,0,0,0-.831h0l-1.5-1.5a.59.59,0,0,0-.832,0h0l-.67.67a5.914,5.914,0,0,0-1.246-.52v-.943a.587.587,0,0,0-.587-.588H111.67a.588.588,0,0,0-.588.588v.934a5.924,5.924,0,0,0-1.261.518l-.655-.656a.588.588,0,0,0-.831,0h0l-1.5,1.5a.588.588,0,0,0,0,.832l.647.647a5.907,5.907,0,0,0-.527,1.267h-.917a.587.587,0,0,0-.588.587v2.118a.588.588,0,0,0,.588.588h.917a5.907,5.907,0,0,0,.527,1.267l-.647.647a.587.587,0,0,0,0,.831h0l1.5,1.5a.588.588,0,0,0,.832,0h0l.655-.655a5.92,5.92,0,0,0,1.261.517v.934a.588.588,0,0,0,.588.588h2.117a.587.587,0,0,0,.587-.588v-.943a5.866,5.866,0,0,0,1.246-.521l.67.67a.587.587,0,0,0,.831,0h0l1.5-1.5a.586.586,0,0,0,0-.83h0L117.943-76a5.919,5.919,0,0,0,.511-1.241h.958A.588.588,0,0,0,120-77.831Z" fill="none" stroke="#bbb" stroke-linecap="round" stroke-linejoin="round" stroke-width="1.5"/>
        <path id="Path_50" data-name="Path 50" d="M115.177-78.892a2.45,2.45,0,0,0-2.45-2.45,2.45,2.45,0,0,0-2.45,2.45,2.45,2.45,0,0,0,2.45,2.451,2.45,2.45,0,0,0,2.45-2.451Z" fill="none" stroke="#bbb" stroke-linecap="round" stroke-linejoin="round" stroke-width="1.5"/>
      </g>
      <g id="Group_576" data-name="Group 576">
        <g id="Group_575" data-name="Group 575">
          <g id="Group_573-2" data-name="Group 573">
            <path id="Path_158" data-name="Path 158" d="M101.956-93.95a24.254,24.254,0,0,1,18.756,7.069,24.308,24.308,0,0,1,5.628,25.588,24.191,24.191,0,0,1-5.628,8.788" fill="none" stroke="#bbb" stroke-linecap="round" stroke-linejoin="round" stroke-width="1.5"/>
            <circle id="Ellipse_514" data-name="Ellipse 514" cx="2.352" cy="2.352" r="2.352" transform="translate(97.291 -95.886)" stroke-width="1.5" stroke="#bbb" stroke-linecap="round" stroke-linejoin="round" fill="none"/>
          </g>
          <g id="Group_574" data-name="Group 574">
            <path id="Path_159" data-name="Path 159" d="M105.094-45.436a24.256,24.256,0,0,1-18.757-7.069A24.31,24.31,0,0,1,80.71-78.093a24.2,24.2,0,0,1,5.627-8.788" fill="none" stroke="#bbb" stroke-linecap="round" stroke-linejoin="round" stroke-width="1.5"/>
            <circle id="Ellipse_515" data-name="Ellipse 515" cx="2.352" cy="2.352" r="2.352" transform="translate(105.054 -48.204)" stroke-width="1.5" stroke="#bbb" stroke-linecap="round" stroke-linejoin="round" fill="none"/>
          </g>
        </g>
      </g>
    </g>
  </g>
</svg>
