<svg xmlns="http://www.w3.org/2000/svg" width="63.956" height="68.754" viewBox="0 0 63.956 68.754"><g transform="translate(-3294.214 -776.073)"><path d="M111.608-85.908h-6.632a1.7,1.7,0,0,0-1.7,1.695h0v2.688a17.107,17.107,0,0,0-3.638,1.492l-1.888-1.89a1.7,1.7,0,0,0-2.4,0h0L91.035-77.6a1.7,1.7,0,0,0,0,2.4h0l1.874,1.874a17.132,17.132,0,0,0-1.519,3.654H88.745a1.7,1.7,0,0,0-1.695,1.7h0v6.108a1.7,1.7,0,0,0,1.695,1.7h2.646a17.132,17.132,0,0,0,1.519,3.654l-1.874,1.873a1.7,1.7,0,0,0,0,2.4h0l4.32,4.32a1.694,1.694,0,0,0,2.4,0h0l1.888-1.89a17.179,17.179,0,0,0,3.638,1.493v2.687a1.7,1.7,0,0,0,1.7,1.7h6.108a1.7,1.7,0,0,0,1.695-1.7h0v-2.72a17.1,17.1,0,0,0,3.6-1.5l1.937,1.937a1.7,1.7,0,0,0,2.4,0h0l4.319-4.319a1.7,1.7,0,0,0,0-2.4l-1.949-1.949a17.109,17.109,0,0,0,1.476-3.579h2.763a1.7,1.7,0,0,0,1.7-1.7h0V-68.5" transform="translate(3217.991 875.541)" fill="none" stroke="currentColor" stroke-linecap="round" stroke-linejoin="round" stroke-width="1.5"/><path d="M118.626-66.808a12.477,12.477,0,0,1-12.477,12.477A12.477,12.477,0,0,1,93.673-66.808a12.476,12.476,0,0,1,12.476-12.476" transform="translate(3219.871 877.421)" fill="none" stroke="currentColor" stroke-linecap="round" stroke-linejoin="round" stroke-width="1.5" stroke-dasharray="0.502 6.023"/><path d="M105.567-77.233a9.844,9.844,0,0,0-9.843,9.843,9.843,9.843,0,0,0,9.843,9.843,9.842,9.842,0,0,0,9.843-9.843" transform="translate(3220.453 878.003)" fill="none" stroke="currentColor" stroke-linecap="round" stroke-linejoin="round" stroke-width="1.5"/><path d="M124.129-75.466v-2.719a.754.754,0,0,0-.755-.754h-1.23a7.6,7.6,0,0,0-.656-1.593l.867-.868a.754.754,0,0,0,0-1.067h0l-1.921-1.922a.757.757,0,0,0-1.068,0h0l-.86.86a7.593,7.593,0,0,0-1.6-.668v-1.211a.754.754,0,0,0-.754-.755h-2.718a.754.754,0,0,0-.755.755v1.2a7.605,7.605,0,0,0-1.619.665l-.841-.842a.755.755,0,0,0-1.067,0h0l-1.922,1.922a.755.755,0,0,0,0,1.068l.831.831a7.584,7.584,0,0,0-.677,1.627h-1.177a.754.754,0,0,0-.755.754v2.719a.754.754,0,0,0,.755.755h1.177a7.583,7.583,0,0,0,.677,1.627l-.831.831a.753.753,0,0,0,0,1.067h0l1.922,1.922a.755.755,0,0,0,1.068,0h0l.841-.841a7.6,7.6,0,0,0,1.619.664v1.2a.754.754,0,0,0,.755.755h2.718a.754.754,0,0,0,.754-.755v-1.211a7.53,7.53,0,0,0,1.6-.669l.86.86a.753.753,0,0,0,1.067,0h0l1.921-1.922a.753.753,0,0,0,0-1.066h0l-.867-.867a7.6,7.6,0,0,0,.656-1.593h1.23A.754.754,0,0,0,124.129-75.466Z" transform="translate(3223.214 875.469)" fill="none" stroke="currentColor" stroke-linecap="round" stroke-linejoin="round" stroke-width="1.5"/><path d="M116.568-78.2a3.145,3.145,0,0,0-3.145-3.145,3.145,3.145,0,0,0-3.145,3.145,3.146,3.146,0,0,0,3.145,3.147,3.146,3.146,0,0,0,3.145-3.147Z" transform="translate(3224.583 876.837)" fill="none" stroke="currentColor" stroke-linecap="round" stroke-linejoin="round" stroke-width="1.5"/><path d="M101.956-93.936a31.137,31.137,0,0,1,24.079,9.075,31.207,31.207,0,0,1,7.225,32.85,31.056,31.056,0,0,1-7.225,11.282" transform="translate(3222.221 873.244)" fill="none" stroke="currentColor" stroke-linecap="round" stroke-linejoin="round" stroke-width="1.5"/><circle cx="3.02" cy="3.02" r="3.02" transform="translate(3318.189 776.823)" fill="none" stroke="currentColor" stroke-linecap="round" stroke-linejoin="round" stroke-width="1.5"/><path d="M112.438-33.673a31.14,31.14,0,0,1-24.08-9.075A31.209,31.209,0,0,1,81.133-75.6a31.07,31.07,0,0,1,7.224-11.282" transform="translate(3215.768 875.265)" fill="none" stroke="currentColor" stroke-linecap="round" stroke-linejoin="round" stroke-width="1.5"/><circle cx="3.02" cy="3.02" r="3.02" transform="translate(3328.154 838.037)" fill="none" stroke="currentColor" stroke-linecap="round" stroke-linejoin="round" stroke-width="1.5"/></g></svg>