<svg xmlns="http://www.w3.org/2000/svg" width="62" height="62" viewBox="0 0 62 62"><defs><clipPath id="a"><path data-name="Rectangle 163" transform="translate(3263 1233)" fill="currentColor" d="M0 0h62v62H0z"/></clipPath></defs><g data-name="Mask Group 11" transform="translate(-3263 -1233)" clip-path="url(#a)"><g data-name="Group 187" fill="none" stroke="currentColor" stroke-linecap="round" stroke-linejoin="round" stroke-width="1.5"><path data-name="Line 58" d="M3292.179 1276.286h3.068"/><path data-name="Line 59" d="M3288.548 1285.578l.558-6.028"/><path data-name="Line 60" d="M3298.319 1279.55l.558 6.028"/><path data-name="Line 61" d="M3283.25 1285.579h20.924"/><path data-name="Line 62" d="M3316.809 1250.786l-4.564-4.564"/><path data-name="Line 63" d="M3312.179 1250.83l-4.278-4.278"/><path data-name="Line 64" stroke-dasharray="0.53 2.65" d="M3316.457 1255.108l-4.278-4.278"/><path data-name="Path 30" d="M3285.511 1252.23a5.094 5.094 0 10-5.094 5.095 5.094 5.094 0 005.094-5.095z"/><g data-name="Group 85" transform="translate(3267 1242)"><rect data-name="Rectangle 30" width="53.425" height="37.339" rx="7.265"/><path data-name="Line 65" d="M0 31.104h53.425"/></g><g data-name="Group 86"><path data-name="Rectangle 31" d="M3295.788 1261.528h17.174v11.333h-17.174z"/><path data-name="Rectangle 32" d="M3274.463 1261.528h17.174v11.333h-17.174z"/></g><path data-name="Line 66" d="M3290.717 1248.866h13.238"/><path data-name="Line 67" d="M3290.717 1255.585h7.01"/><path data-name="Line 68" d="M3290.717 1252.225h13.238"/></g></g></svg>