<svg xmlns="http://www.w3.org/2000/svg" width="77.785" height="65.073" viewBox="0 0 77.785 65.073"><g transform="translate(-3287.107 -985.379)"><path d="M-457.454,637.021v3.43H-487.74V579.446a2.164,2.164,0,0,1,2.163-2.164h25.96a2.163,2.163,0,0,1,2.163,2.164v1.339" transform="translate(3775.597 408.847)" fill="none" stroke="currentColor" stroke-linecap="round" stroke-linejoin="round" stroke-width="1.5"/><line x1="0.865" transform="translate(3299.107 1041.51)" stroke-width="1.5" stroke="currentColor" stroke-linecap="round" stroke-linejoin="round" fill="none"/><line x1="0.865" transform="translate(3293.915 1041.51)" stroke-width="1.5" stroke="currentColor" stroke-linecap="round" stroke-linejoin="round" fill="none"/><line x2="4.321" transform="translate(3293.915 1008.207)" stroke-width="1.5" stroke="currentColor" stroke-linecap="round" stroke-linejoin="round" fill="none"/><line x2="6.037" transform="translate(3293.915 1003.659)" stroke-width="1.5" stroke="currentColor" stroke-linecap="round" stroke-linejoin="round" fill="none"/><line x2="8.213" transform="translate(3293.915 999.111)" stroke-width="1.5" stroke="currentColor" stroke-linecap="round" stroke-linejoin="round" fill="none"/><line x2="14.699" transform="translate(3293.915 994.562)" stroke-width="1.5" stroke="currentColor" stroke-linecap="round" stroke-linejoin="round" fill="none"/><line x2="3.528" transform="translate(3331.661 1038.951)" stroke-width="1.5" stroke="currentColor" stroke-linecap="round" stroke-linejoin="round" fill="none"/><line y1="6.932" x2="0.642" transform="translate(3327.485 1042.704)" stroke-width="1.5" stroke="currentColor" stroke-linecap="round" stroke-linejoin="round" fill="none"/><line x2="0.642" y2="6.932" transform="translate(3338.721 1042.704)" stroke-width="1.5" stroke="currentColor" stroke-linecap="round" stroke-linejoin="round" fill="none"/><line x2="24.062" transform="translate(3321.393 1049.637)" stroke-width="1.5" stroke="currentColor" stroke-linecap="round" stroke-linejoin="round" fill="none"/><line x1="5.248" y1="5.248" transform="translate(3354.736 1004.378)" stroke-width="1.5" stroke="currentColor" stroke-linecap="round" stroke-linejoin="round" fill="none"/><line x1="4.92" y1="4.92" transform="translate(3349.74 1004.758)" stroke-width="1.5" stroke="currentColor" stroke-linecap="round" stroke-linejoin="round" fill="none"/><line x1="4.92" y1="4.92" transform="translate(3354.66 1009.677)" stroke-width="1.5" stroke="currentColor" stroke-linecap="round" stroke-linejoin="round" fill="none"/><rect width="61.437" height="42.939" rx="8.354" transform="translate(3302.706 999.523)" stroke-width="1.5" stroke="currentColor" stroke-linecap="round" stroke-linejoin="round" fill="none"/><line x2="61.437" transform="translate(3302.706 1035.292)" stroke-width="1.5" stroke="currentColor" stroke-linecap="round" stroke-linejoin="round" fill="none"/></g></svg>